<?xml version="1.0" encoding="UTF-8"?>
<!--
Copyright (C) 2009/2010/2011 Ulrich Apel.
This work is distributed under the conditions of the Creative Commons
Attribution-Share Alike 3.0 Licence. This means you are free:
* to Share - to copy, distribute and transmit the work
* to Remix - to adapt the work

Under the following conditions:
* Attribution. You must attribute the work by stating your use of KanjiVG in
  your own copyright header and linking to KanjiVG's website
  (http://kanjivg.tagaini.net)
* Share Alike. If you alter, transform, or build upon this work, you may
  distribute the resulting work only under the same or similar license to this
  one.

See http://creativecommons.org/licenses/by-sa/3.0/ for more details.
-->
<!DOCTYPE svg PUBLIC "-//W3C//DTD SVG 1.0//EN" "http://www.w3.org/TR/2001/REC-SVG-20010904/DTD/svg10.dtd" [
    <!ATTLIST g
        xmlns:kvg CDATA #FIXED "http://kanjivg.tagaini.net"
        kvg:element CDATA #IMPLIED
        kvg:variant CDATA #IMPLIED
        kvg:partial CDATA #IMPLIED
        kvg:original CDATA #IMPLIED
        kvg:part CDATA #IMPLIED
        kvg:number CDATA #IMPLIED
        kvg:tradForm CDATA #IMPLIED
        kvg:radicalForm CDATA #IMPLIED
        kvg:position CDATA #IMPLIED
        kvg:radical CDATA #IMPLIED
        kvg:phon CDATA #IMPLIED>
    <!ATTLIST path
        xmlns:kvg CDATA #FIXED "http://kanjivg.tagaini.net"
        kvg:type CDATA #IMPLIED>
]>
<svg xmlns="http://www.w3.org/2000/svg" width="109" height="109" viewBox="0 0 109 109">
    <g id="kvg:StrokePaths_056EC" style="fill:none;stroke:#000000;stroke-width:3;stroke-linecap:round;stroke-linejoin:round;">
        <g kvg:element="⿫">
            <path id="kvg:056EC-s3" kvg:type="㇑a" d="M38.75,42.5c0.88,0.88,1.47,2.37,1.5,3.75c0.25,11,0.75,27,1,39.5" />
            <path id="kvg:056EC-s4" kvg:type="㇑a" d="M64.5,40c0.88,0.88,1.55,2.75,1.5,3.75c-0.38,7-1.38,32.25-1.75,40.75" />
            <path id="kvg:056EC-s5" kvg:type="㇐a" d="M41.75,55c2.5,0,20-1.75,22.5-1.75" />
            <path id="kvg:056EC-s6" kvg:type="㇐a" d="M42,70.75c4.25-0.5,18-1.5,21.5-1.75" />
        </g>
    </g>
    <g id="kvg:StrokeNumbers_056EC" style="font-size:8;fill:#808080">
        <text transform="matrix(1 0 0 1 32.50 51.50)">1</text>
        <text transform="matrix(1 0 0 1 58.50 48.13)">2</text>
        <text transform="matrix(1 0 0 1 45.50 51.50)">3</text>
        <text transform="matrix(1 0 0 1 45.50 67.50)">4</text>
    </g>
</svg>