<?xml version="1.0" encoding="UTF-8"?>
<!--
Copyright (C) 2009/2010/2011 Ulrich Apel.
This work is distributed under the conditions of the Creative Commons
Attribution-Share Alike 3.0 Licence. This means you are free:
* to Share - to copy, distribute and transmit the work
* to Remix - to adapt the work

Under the following conditions:
* Attribution. You must attribute the work by stating your use of KanjiVG in
  your own copyright header and linking to KanjiVG's website
  (http://kanjivg.tagaini.net)
* Share Alike. If you alter, transform, or build upon this work, you may
  distribute the resulting work only under the same or similar license to this
  one.

See http://creativecommons.org/licenses/by-sa/3.0/ for more details.
-->
<!DOCTYPE svg PUBLIC "-//W3C//DTD SVG 1.0//EN" "http://www.w3.org/TR/2001/REC-SVG-20010904/DTD/svg10.dtd" [
	<!ATTLIST g
		xmlns:kvg CDATA #FIXED "http://kanjivg.tagaini.net"
		kvg:element CDATA #IMPLIED
		kvg:variant CDATA #IMPLIED
		kvg:partial CDATA #IMPLIED
		kvg:original CDATA #IMPLIED
		kvg:part CDATA #IMPLIED
		kvg:number CDATA #IMPLIED
		kvg:tradForm CDATA #IMPLIED
		kvg:radicalForm CDATA #IMPLIED
		kvg:position CDATA #IMPLIED
		kvg:radical CDATA #IMPLIED
		kvg:phon CDATA #IMPLIED >
	<!ATTLIST path
		xmlns:kvg CDATA #FIXED "http://kanjivg.tagaini.net"
		kvg:type CDATA #IMPLIED >
]>
<svg xmlns="http://www.w3.org/2000/svg" width="109" height="109" viewBox="0 0 109 109">
	<g id="kvg:StrokePaths_06ed5" style="fill:none;stroke:#000000;stroke-width:3;stroke-linecap:round;stroke-linejoin:round;">
		<g id="kvg:06ed5-g3" kvg:position="top" kvg:element="㇤">
			<g kvg:position="top" kvg:element="八">
				<path id="kvg:06ed5-s5" kvg:type="㇒" d="M56.34,16.14c0.04,0.31,0.15,0.84-0.07,1.26c-2.27,4.35-7.02,9.85-12.78,13.06" />
				<path id="kvg:06ed5-s6" kvg:type="㇔" d="M78.5,15.58c4.97,1.96,12.83,8.08,14.07,11.13" />
			</g>
			<g kvg:position="bottom">
				<g kvg:position="top" kvg:element="二">
					<path id="kvg:06ed5-s7" kvg:type="㇐" d="M49.75,31.93c0.73,0.29,2.05,0.37,2.78,0.29c4.62-0.51,25.26-2.95,29.73-2.61c1.2,0.09,1.93,0.14,2.54,0.29" />
					<path id="kvg:06ed5-s8" kvg:type="㇐" d="M42.6,45.13c1.17,0.42,3.33,0.56,4.49,0.42c6.31-0.77,33.42-3.31,46.1-3.88c1.95-0.09,3.12,0.2,4.1,0.41" />
				</g>
				<g id="kvg:06ed5-g7" kvg:element="人">
					<path id="kvg:06ed5-s9" kvg:type="㇒" d="M66.95,12.25c0,1,0.22,1.96,0.19,3.77c-0.18,11-11.39,40.95-26.12,48.73" />
					<path id="kvg:06ed5-s10" kvg:type="㇏" d="M67.69,30.31c3.96,5.87,21.04,25.04,25.42,29.33c1.48,1.46,3.39,2.08,4.87,2.5" />
				</g>
			</g>
		</g>
	</g>
	<g id="kvg:StrokeNumbers_06ed5" style="font-size:8;fill:#808080">
		<text transform="matrix(1 0 0 1 48.50 15.50)">1</text>
		<text transform="matrix(1 0 0 1 75.50 12.50)">2</text>
		<text transform="matrix(1 0 0 1 55.50 29.50)">3</text>
		<text transform="matrix(1 0 0 1 40.50 42.50)">4</text>
		<text transform="matrix(1 0 0 1 58.25 11.50)">5</text>
		<text transform="matrix(1 0 0 1 77.25 38.50)">6</text>
	</g>
</svg>