<?xml version="1.0" encoding="UTF-8"?>
<!--
Copyright (C) 2009/2010/2011 Ulrich Apel.
This work is distributed under the conditions of the Creative Commons
Attribution-Share Alike 3.0 Licence. This means you are free:
* to Share - to copy, distribute and transmit the work
* to Remix - to adapt the work

Under the following conditions:
* Attribution. You must attribute the work by stating your use of KanjiVG in
  your own copyright header and linking to KanjiVG's website
  (http://kanjivg.tagaini.net)
* Share Alike. If you alter, transform, or build upon this work, you may
  distribute the resulting work only under the same or similar license to this
  one.

See http://creativecommons.org/licenses/by-sa/3.0/ for more details.
-->
<!DOCTYPE svg PUBLIC "-//W3C//DTD SVG 1.0//EN" "http://www.w3.org/TR/2001/REC-SVG-20010904/DTD/svg10.dtd" [
	<!ATTLIST g
		xmlns:kvg CDATA #FIXED "http://kanjivg.tagaini.net"
		kvg:element CDATA #IMPLIED
		kvg:variant CDATA #IMPLIED
		kvg:partial CDATA #IMPLIED
		kvg:original CDATA #IMPLIED
		kvg:part CDATA #IMPLIED
		kvg:number CDATA #IMPLIED
		kvg:tradForm CDATA #IMPLIED
		kvg:radicalForm CDATA #IMPLIED
		kvg:position CDATA #IMPLIED
		kvg:radical CDATA #IMPLIED
		kvg:phon CDATA #IMPLIED >
	<!ATTLIST path
		xmlns:kvg CDATA #FIXED "http://kanjivg.tagaini.net"
		kvg:type CDATA #IMPLIED >
]>
<svg xmlns="http://www.w3.org/2000/svg" width="109" height="109" viewBox="0 0 109 109">
	<g id="kvg:StrokePaths_06b8b" style="fill:none;stroke:#000000;stroke-width:3;stroke-linecap:round;stroke-linejoin:round;">
		<g id="kvg:06b8b-g4" kvg:element="㦮" kvg:position="right" kvg:phon="戋/戔V">
			<g id="kvg:06b8b-g5" kvg:element="三" kvg:position="top">
				<path id="kvg:06b8b-s5" kvg:type="㇐" d="M52.25,31.4c1.8,0.65,3.95,0.45,5.79,0.12c4.99-0.88,14.92-3.93,20.85-5.45c1.19-0.31,2.37-0.58,3.61-0.58" />
				<path id="kvg:06b8b-s6" kvg:type="㇐" d="M51.25,45.14c2.25,0.49,4.54,0.29,6.4-0.13c5.97-1.36,16.72-5.1,22.11-6.82c1.21-0.39,2.45-0.69,3.73-0.69" />
				<path id="kvg:06b8b-s7" kvg:type="㇐" d="M47.5,57.7c2.4,0.86,5.21,0.46,7.63-0.07c6.57-1.42,22.23-5.9,29.79-7.99c1.6-0.44,3.19-0.71,4.83-0.89" />
			</g>
			<g id="kvg:06b8b-g8" kvg:element="⿘" kvg:position="bottom">
				<path id="kvg:06b8b-s8" kvg:type="㇂" d="M61.5,11.25c1.5,1.75,2.39,3.48,2.69,7.25c2.44,30.38,10.94,58.88,27.71,73c5.34,4.5,4.48-2.62,4.32-8.25" />
				<path id="kvg:06b8b-s9" kvg:type="㇒" d="M87,57.12c0.11,0.77-0.04,1.73-0.48,2.83C83.88,66.47,70.18,81.23,48,90.25" />
				<path id="kvg:06b8b-s10" kvg:type="㇔" d="M79,12.75c4.59,2.35,11,7.12,14.08,11.75" />
			</g>
		</g>
	</g>
	<g id="kvg:StrokeNumbers_06b8b" style="font-size:8;fill:#808080">
		<text transform="matrix(1 0 0 1 50.25 28.63)">1</text>
		<text transform="matrix(1 0 0 1 50.25 42.13)">2</text>
		<text transform="matrix(1 0 0 1 50.25 55.63)">3</text>
		<text transform="matrix(1 0 0 1 51.75 12.13)">4</text>
		<text transform="matrix(1 0 0 1 92.50 59.50)">5</text>
		<text transform="matrix(1 0 0 1 74.50 10.50)">6</text>
	</g>
</svg>