<?xml version="1.0" encoding="UTF-8"?>
<!--
Copyright (C) 2009/2010/2011 Ulrich Apel.
This work is distributed under the conditions of the Creative Commons
Attribution-Share Alike 3.0 Licence. This means you are free:
* to Share - to copy, distribute and transmit the work
* to Remix - to adapt the work

Under the following conditions:
* Attribution. You must attribute the work by stating your use of KanjiVG in
  your own copyright header and linking to KanjiVG's website
  (http://kanjivg.tagaini.net)
* Share Alike. If you alter, transform, or build upon this work, you may
  distribute the resulting work only under the same or similar license to this
  one.

See http://creativecommons.org/licenses/by-sa/3.0/ for more details.
-->
<!DOCTYPE svg PUBLIC "-//W3C//DTD SVG 1.0//EN" "http://www.w3.org/TR/2001/REC-SVG-20010904/DTD/svg10.dtd" [
	<!ATTLIST g
		xmlns:kvg CDATA #FIXED "http://kanjivg.tagaini.net"
		kvg:element CDATA #IMPLIED
		kvg:variant CDATA #IMPLIED
		kvg:partial CDATA #IMPLIED
		kvg:original CDATA #IMPLIED
		kvg:part CDATA #IMPLIED
		kvg:number CDATA #IMPLIED
		kvg:tradForm CDATA #IMPLIED
		kvg:radicalForm CDATA #IMPLIED
		kvg:position CDATA #IMPLIED
		kvg:radical CDATA #IMPLIED
		kvg:phon CDATA #IMPLIED >
	<!ATTLIST path
		xmlns:kvg CDATA #FIXED "http://kanjivg.tagaini.net"
		kvg:type CDATA #IMPLIED >
]>
<svg xmlns="http://www.w3.org/2000/svg" width="109" height="109" viewBox="0 0 109 109">
	<g id="kvg:StrokePaths_07f70" style="fill:none;stroke:#000000;stroke-width:3;stroke-linecap:round;stroke-linejoin:round;">
		<g id="kvg:07f70-g2" kvg:element="䚯">
			<g id="kvg:07f70-g3" kvg:element="言" kvg:position="left">
				<path id="kvg:07f70-s6" kvg:type="㇔" d="M30.25,37.62c2.53,1.04,6.53,4.3,7.16,5.92" />
				<path id="kvg:07f70-s7" kvg:type="㇐" d="M16.14,51.06c1.8,0.64,3.64,0.65,5.5,0.5c8.31-0.7,18.15-1.99,25.88-2.99c1.64-0.21,3.23-0.37,4.86-0.02" />
				<path id="kvg:07f70-s8" kvg:type="㇐" d="M24.03,60.92c1.11,0.42,2.33,0.43,3.49,0.33c4.57-0.38,13.06-1.88,16.11-2.2c1.21-0.13,2.77-0.41,3.96-0.15" />
				<path id="kvg:07f70-s9" kvg:type="㇐" d="M23.78,70.45c1.04,0.4,2.66,0.41,3.72,0.32c4.41-0.36,12.17-1.56,15.88-2.09c1.28-0.18,2.63-0.28,3.91,0.01" />
				<g id="kvg:07f70-g4" kvg:element="口">
					<path id="kvg:07f70-s10" kvg:type="㇑" d="M23.39,80.4c0.68,0.54,0.95,1.77,1.15,2.56c0.72,2.74,1.17,6.46,1.82,10.53c0.21,1.32,0.41,2.61,0.61,3.77" />
					<path id="kvg:07f70-s11" kvg:type="㇕b" d="M25.41,81.1c7.02-1.41,13.99-2.45,19.95-3.16c2.61-0.31,3.51,0.93,2.97,2.92c-0.89,3.25-1.31,6.61-2.5,10.63" />
					<path id="kvg:07f70-s12" kvg:type="㇐b" d="M27.64,94.98c4.26-0.36,10.65-1.45,16.62-2.02c1.05-0.1,2.09-0.2,3.12-0.3" />
				</g>
			</g>
			<g id="kvg:07f70-g5" kvg:element="刂" kvg:position="right" kvg:original="刀">
				<path id="kvg:07f70-s13" kvg:type="㇑" d="M65.02,43.33c1.08,1.08,1.51,2.67,1.51,5.02c0,10.52-0.01,20-0.02,26.4c0,2.66,0,4.79,0,6.25" />
				<path id="kvg:07f70-s14" kvg:type="㇚" d="M85.57,36.33c1.24,1.24,1.37,2.42,1.37,3.89c0,13.47,0.01,45.62,0.01,50.21c0,9.69-6.2,2.07-8.05,0.23" />
			</g>
		</g>
	</g>
	<g id="kvg:StrokeNumbers_07f70" style="font-size:8;fill:#808080">
		<text transform="matrix(1 0 0 1 23.25 42.50)">1</text>
		<text transform="matrix(1 0 0 1 9.50 52.48)">2</text>
		<text transform="matrix(1 0 0 1 15.75 62.90)">3</text>
		<text transform="matrix(1 0 0 1 15.75 73.33)">4</text>
		<text transform="matrix(1 0 0 1 13.50 87.50)">5</text>
		<text transform="matrix(1 0 0 1 26.50 78.50)">6</text>
		<text transform="matrix(1 0 0 1 29.50 91.55)">7</text>
		<text transform="matrix(1 0 0 1 54.75 45.50)">8</text>
		<text transform="matrix(1 0 0 1 74.25 39.50)">9</text>
	</g>
</svg>