<?xml version="1.0" encoding="UTF-8"?>
<!--
Copyright (C) 2009/2010/2011 Ulrich Apel.
This work is distributed under the conditions of the Creative Commons
Attribution-Share Alike 3.0 Licence. This means you are free:
* to Share - to copy, distribute and transmit the work
* to Remix - to adapt the work

Under the following conditions:
* Attribution. You must attribute the work by stating your use of KanjiVG in
  your own copyright header and linking to KanjiVG's website
  (http://kanjivg.tagaini.net)
* Share Alike. If you alter, transform, or build upon this work, you may
  distribute the resulting work only under the same or similar license to this
  one.

See http://creativecommons.org/licenses/by-sa/3.0/ for more details.
-->
<!DOCTYPE svg PUBLIC "-//W3C//DTD SVG 1.0//EN" "http://www.w3.org/TR/2001/REC-SVG-20010904/DTD/svg10.dtd" [
	<!ATTLIST g
		xmlns:kvg CDATA #FIXED "http://kanjivg.tagaini.net"
		kvg:element CDATA #IMPLIED
		kvg:variant CDATA #IMPLIED
		kvg:partial CDATA #IMPLIED
		kvg:original CDATA #IMPLIED
		kvg:part CDATA #IMPLIED
		kvg:number CDATA #IMPLIED
		kvg:tradForm CDATA #IMPLIED
		kvg:radicalForm CDATA #IMPLIED
		kvg:position CDATA #IMPLIED
		kvg:radical CDATA #IMPLIED
		kvg:phon CDATA #IMPLIED >
	<!ATTLIST path
		xmlns:kvg CDATA #FIXED "http://kanjivg.tagaini.net"
		kvg:type CDATA #IMPLIED >
]>
<svg xmlns="http://www.w3.org/2000/svg" width="109" height="109" viewBox="0 0 109 109">
	<g id="kvg:StrokePaths_0696d" style="fill:none;stroke:#000000;stroke-width:3;stroke-linecap:round;stroke-linejoin:round;">
		<g id="kvg:0696d-g1" kvg:element="业">
			<g kvg:position="top">
				<g kvg:position="left">
					<path id="kvg:0696d-s1" kvg:type="㇑a" d="M45.37,12.75c0.88,0.88,1.46,1.88,1.46,3.25c0,1.02-0.08,7.5-0.08,14" />
				</g>
				<path id="kvg:0696d-s2" kvg:type="㇑a" d="M61.37,11c0.88,0.88,1.29,2.23,1.21,3.25c-0.2,2.62-0.45,6.12-1.08,14.75" />
			</g>
			<g kvg:position="bottom" kvg:element="䒑">
				<path id="kvg:0696d-s3" kvg:type="㇔" d="M28.27,19.46c2.4,1.81,6.19,7.44,6.79,10.26" />
				<path id="kvg:0696d-s4" kvg:type="㇒" d="M78.62,14.62c0.33,0.94,0.31,1.83-0.06,2.65c-1.03,2.69-2.21,4.87-4.51,8.69" />
				<path id="kvg:0696d-s5" kvg:type="㇐" d="M12,33.89c3.25,0.86,6.88,1.03,10.43,0.59c23.8-2.95,42.69-5.04,63.67-5.96c4.53-0.2,7.75,0.28,10.02,0.58" />
			</g>
		</g>
	</g>
	<g id="kvg:StrokeNumbers_0696d" style="font-size:8;fill:#808080">
		<text transform="matrix(1 0 0 1 37.50 13.50)">1</text>
		<text transform="matrix(1 0 0 1 52.50 11.50)">2</text>
		<text transform="matrix(1 0 0 1 21.50 20.50)">3</text>
		<text transform="matrix(1 0 0 1 71.50 14.50)">4</text>
		<text transform="matrix(1 0 0 1 4.50 34.50)">5</text>
	</g>
</svg>