<?xml version="1.0" encoding="UTF-8"?>
<!--
Copyright (C) 2009/2010/2011 Ulrich Apel.
This work is distributed under the conditions of the Creative Commons
Attribution-Share Alike 3.0 Licence. This means you are free:
* to Share - to copy, distribute and transmit the work
* to Remix - to adapt the work

Under the following conditions:
* Attribution. You must attribute the work by stating your use of KanjiVG in
  your own copyright header and linking to KanjiVG's website
  (http://kanjivg.tagaini.net)
* Share Alike. If you alter, transform, or build upon this work, you may
  distribute the resulting work only under the same or similar license to this
  one.

See http://creativecommons.org/licenses/by-sa/3.0/ for more details.
-->
<!DOCTYPE svg PUBLIC "-//W3C//DTD SVG 1.0//EN" "http://www.w3.org/TR/2001/REC-SVG-20010904/DTD/svg10.dtd" [
	<!ATTLIST g
		xmlns:kvg CDATA #FIXED "http://kanjivg.tagaini.net"
		kvg:element CDATA #IMPLIED
		kvg:variant CDATA #IMPLIED
		kvg:partial CDATA #IMPLIED
		kvg:original CDATA #IMPLIED
		kvg:part CDATA #IMPLIED
		kvg:number CDATA #IMPLIED
		kvg:tradForm CDATA #IMPLIED
		kvg:radicalForm CDATA #IMPLIED
		kvg:position CDATA #IMPLIED
		kvg:radical CDATA #IMPLIED
		kvg:phon CDATA #IMPLIED >
	<!ATTLIST path
		xmlns:kvg CDATA #FIXED "http://kanjivg.tagaini.net"
		kvg:type CDATA #IMPLIED >
]>
<svg xmlns="http://www.w3.org/2000/svg" width="109" height="109" viewBox="0 0 109 109">
	<g id="kvg:StrokePaths_09e97" style="fill:none;stroke:#000000;stroke-width:3;stroke-linecap:round;stroke-linejoin:round;">
		<g id="kvg:09e97" kvg:element="丽">
			<g id="kvg:09e97-g2" kvg:position="left">
				<path id="kvg:09e97-s1" kvg:type="㇐" d="M19.25,14.14c1.48,0.6,3.33,0.42,4.88,0.3c5.39-0.44,15.28-1.74,21.5-2.34c1.37-0.13,3.51-0.16,4.87,0.17" />
				<path id="kvg:09e97-s2" kvg:type="㇑" d="M24.27,23.67c0.72,0.72,0.84,1.64,0.84,2.44c0,0.54-0.04,5.8-0.04,9.9c0,1.97,0.01,3.49,0.04,3.75" />
				<path id="kvg:09e97-s3" kvg:type="㇕a" d="M26.09,24.52c1.36-0.08,12.33-1.68,16.92-2.29c2.6-0.35,3.85-0.08,3.81,2.77c-0.03,2.19,0.03,6.46-0.03,9.51c-0.03,1.86-0.04,3.55-0.04,3.74" />
				<path id="kvg:09e97-s4" kvg:type="㇔" d="M32.13,30.25c2.34,1.03,6.03,4.24,6.62,5.84" />
			</g>
			<g id="kvg:09e97-g4" kvg:position="right">
				<path id="kvg:09e97-s5" kvg:type="㇐" d="M59,12.64c2.25,0.36,3.84,0.16,5.62-0.04c5.47-0.61,14.98-1.69,20.5-2.11c1.56-0.12,3.33-0.35,4.88,0.02" />
				<path id="kvg:09e97-s6" kvg:type="㇑" d="M61.77,21.92c0.78,0.78,0.84,1.83,0.84,2.94c0,0.52-0.04,4.81-0.04,8.9c0,2.09,0.01,3.73,0.04,4" />
				<path id="kvg:09e97-s7" kvg:type="㇕a" d="M63.09,22.52c1.43-0.09,15.06-1.83,19.67-2.37c2.48-0.29,3.37,0,3.37,2.6c0,2.57,0,6.48,0.06,10.13c0.03,2.02,0.05,3.52,0.05,3.58" />
				<path id="kvg:09e97-s8" kvg:type="㇔" d="M70.76,28.12c2.03,0.96,5.23,3.97,5.74,5.47" />
			</g>
		</g>
	</g>
	<g id="kvg:StrokeNumbers_09e97" style="font-size:8;fill:#808080">
		<text transform="matrix(1 0 0 1 16.25 11.25)">1</text>
		<text transform="matrix(1 0 0 1 17.00 29.80)">2</text>
		<text transform="matrix(1 0 0 1 27.25 22.38)">3</text>
		<text transform="matrix(1 0 0 1 35.25 30.25)">4</text>
		<text transform="matrix(1 0 0 1 56.25 10.25)">5</text>
		<text transform="matrix(1 0 0 1 54.50 24.25)">6</text>
		<text transform="matrix(1 0 0 1 63.50 20.25)">7</text>
		<text transform="matrix(1 0 0 1 75.25 28.25)">8</text>

	</g>
</svg>