<?xml version="1.0" encoding="UTF-8"?>
<!--
Copyright (C) 2009/2010/2011 Ulrich Apel.
This work is distributed under the conditions of the Creative Commons
Attribution-Share Alike 3.0 Licence. This means you are free:
* to Share - to copy, distribute and transmit the work
* to Remix - to adapt the work

Under the following conditions:
* Attribution. You must attribute the work by stating your use of KanjiVG in
  your own copyright header and linking to KanjiVG's website
  (http://kanjivg.tagaini.net)
* Share Alike. If you alter, transform, or build upon this work, you may
  distribute the resulting work only under the same or similar license to this
  one.

See http://creativecommons.org/licenses/by-sa/3.0/ for more details.
-->
<!DOCTYPE svg PUBLIC "-//W3C//DTD SVG 1.0//EN" "http://www.w3.org/TR/2001/REC-SVG-20010904/DTD/svg10.dtd" [
	<!ATTLIST g
		xmlns:kvg CDATA #FIXED "http://kanjivg.tagaini.net"
		kvg:element CDATA #IMPLIED
		kvg:variant CDATA #IMPLIED
		kvg:partial CDATA #IMPLIED
		kvg:original CDATA #IMPLIED
		kvg:part CDATA #IMPLIED
		kvg:number CDATA #IMPLIED
		kvg:tradForm CDATA #IMPLIED
		kvg:radicalForm CDATA #IMPLIED
		kvg:position CDATA #IMPLIED
		kvg:radical CDATA #IMPLIED
		kvg:phon CDATA #IMPLIED >
	<!ATTLIST path
		xmlns:kvg CDATA #FIXED "http://kanjivg.tagaini.net"
		kvg:type CDATA #IMPLIED >
]>
<svg xmlns="http://www.w3.org/2000/svg" width="109" height="109" viewBox="0 0 109 109">
	<g id="kvg:StrokePaths_06319" style="fill:none;stroke:#000000;stroke-width:3;stroke-linecap:round;stroke-linejoin:round;">
		<g id="kvg:06319-g1" kvg:position="top" kvg:element="兴" kvg:phon="與V">
			<g id="kvg:06319-g2" kvg:element="⺍" kvg:original="つ">
				<path id="kvg:06319-s1" kvg:type="㇔" d="M26.5,17.12c3.95,3.81,8.19,10.47,8.75,12.38" />
				<path id="kvg:06319-s2" kvg:type="㇔" d="M45.75,13c3,3.12,7.25,8.25,8.75,13" />
				<path id="kvg:06319-s3" kvg:type="㇒" d="M78.5,12.75c0.38,1.12,0.1,2.63-0.5,3.75c-2,3.75-7.38,11.25-10.5,14.5" />
			</g>
			<g kvg:position="bottom" kvg:element="㇮">
				<path id="kvg:06319-s4" kvg:type="㇐" d="M16.75,38.2c3.5,0.55,7.59,0.15,11.15-0.22c11.88-1.23,38.95-3.93,55.48-4.94c3.59-0.22,7.88-0.17,11.38,0.5" />
				<g id="kvg:06319-g3" kvg:element="八">
					<path id="kvg:06319-s5" kvg:type="㇒" d="M40.54,38.68c0.07,0.61-0.15,1.4-0.65,2.18C35.5,47.75,27.75,55.5,14.75,63.65" />
					<path id="kvg:06319-s6" kvg:type="㇏" d="M61.75,36c2.67,1.47,17.58,14.43,24.85,20.42c2.23,1.84,4.65,3.2,7.77,4.33" />
				</g>
			</g>
		</g>

	</g>
	<g id="kvg:StrokeNumbers_06319" style="font-size:8;fill:#808080">
		<text transform="matrix(1 0 0 1 19.99 18.50)">1</text>
		<text transform="matrix(1 0 0 1 39.50 14.50)">2</text>
		<text transform="matrix(1 0 0 1 69.50 12.50)">3</text>
		<text transform="matrix(1 0 0 1 12.49 34.41)">4</text>
		<text transform="matrix(1 0 0 1 27.49 47.83)">5</text>
		<text transform="matrix(1 0 0 1 74.50 43.26)">6</text>
	</g>
</svg>