<?xml version="1.0" encoding="UTF-8"?>
<!--
Copyright (C) 2009/2010/2011 Ulrich Apel.
This work is distributed under the conditions of the Creative Commons
Attribution-Share Alike 3.0 Licence. This means you are free:
* to Share - to copy, distribute and transmit the work
* to Remix - to adapt the work

Under the following conditions:
* Attribution. You must attribute the work by stating your use of KanjiVG in
  your own copyright header and linking to KanjiVG's website
  (http://kanjivg.tagaini.net)
* Share Alike. If you alter, transform, or build upon this work, you may
  distribute the resulting work only under the same or similar license to this
  one.

See http://creativecommons.org/licenses/by-sa/3.0/ for more details.
-->
<!DOCTYPE svg PUBLIC "-//W3C//DTD SVG 1.0//EN" "http://www.w3.org/TR/2001/REC-SVG-20010904/DTD/svg10.dtd" [
	<!ATTLIST g
		xmlns:kvg CDATA #FIXED "http://kanjivg.tagaini.net"
		kvg:element CDATA #IMPLIED
		kvg:variant CDATA #IMPLIED
		kvg:partial CDATA #IMPLIED
		kvg:original CDATA #IMPLIED
		kvg:part CDATA #IMPLIED
		kvg:number CDATA #IMPLIED
		kvg:tradForm CDATA #IMPLIED
		kvg:radicalForm CDATA #IMPLIED
		kvg:position CDATA #IMPLIED
		kvg:radical CDATA #IMPLIED
		kvg:phon CDATA #IMPLIED >
	<!ATTLIST path
		xmlns:kvg CDATA #FIXED "http://kanjivg.tagaini.net"
		kvg:type CDATA #IMPLIED >
]>
<svg xmlns="http://www.w3.org/2000/svg" width="109" height="109" viewBox="0 0 109 109">
	<g id="kvg:StrokePaths_05354" style="fill:none;stroke:#000000;stroke-width:3;stroke-linecap:round;stroke-linejoin:round;">
		<g id="kvg:05354-g2" kvg:element="劦" kvg:phon="劦">
			<g id="kvg:05354-g3" kvg:element="力" kvg:position="top">
				<path id="kvg:05354-s3" kvg:type="㇆" d="M47.42,28.61c1.95,0.84,3.8,1.03,5.84,0.82c8.74-0.92,26.03-4.34,29.22-4.69c2.32-0.26,2.96,1.16,2.84,2.97c-0.34,4.76-5.96,18.49-9.57,21.71c-2.7,2.41-3.38,1.3-6.19-0.39" />
				<path id="kvg:05354-s4" kvg:type="㇒" d="M66.37,12c0.47,1.09,0.64,2.25,0.4,3.64c-1.79,10.27-7.3,26.67-19.02,37.24" />
			</g>
			<g id="kvg:05354-g4" kvg:position="bottom">
				<g id="kvg:05354-g5" kvg:element="力" kvg:position="left">
					<path id="kvg:05354-s5" kvg:type="㇆" d="M35.82,70.33c0.86,0.41,3.76,0.66,4.69,0.49c6.14-1.14,16.76-3.12,19.28-3.43c1.88-0.23,2.4,1.04,2.3,2.65c-0.28,4.26-5.89,19.17-8.82,22.05c-2.21,2.17-2.8,1.12-5.01-0.35" />
					<path id="kvg:05354-s6" kvg:type="㇒" d="M49.5,58.43c0.38,1.2,0.38,2.31,0.14,3.58c-1.76,9.46-4.89,24.87-17.51,33.56" />
				</g>
				<g id="kvg:05354-g6" kvg:element="力" kvg:position="right">
					<path id="kvg:05354-s7" kvg:type="㇆" d="M68.84,66.61c0.83,0.46,3.21,0.49,4.16,0.27c5.91-1.35,16.1-4.04,18.56-4.4c1.81-0.26,2.88,0.92,2.71,2.71c-0.89,9.05-5.52,22.3-9.22,27.71c-1.84,2.68-2.56,1.35-4.81-0.39" />
					<path id="kvg:05354-s8" kvg:type="㇒" d="M80.53,55.43c0.6,0.95,0.59,2.15,0.39,3.49c-1.42,9.46-6.04,26.83-19.42,35.83" />
				</g>
			</g>
		</g>
	</g>
	<g id="kvg:StrokeNumbers_05354" style="font-size:8;fill:#808080">
		<text transform="matrix(1 0 0 1 40.50 28.50)">1</text>
		<text transform="matrix(1 0 0 1 57.50 12.50)">2</text>
		<text transform="matrix(1 0 0 1 33.50 67.50)">3</text>
		<text transform="matrix(1 0 0 1 40.50 61.50)">4</text>
		<text transform="matrix(1 0 0 1 66.50 63.50)">5</text>
		<text transform="matrix(1 0 0 1 73.50 60.50)">6</text>
	</g>
</svg>