<?xml version="1.0" encoding="UTF-8"?>
<!--
Copyright (C) 2009/2010/2011 Ulrich Apel.
This work is distributed under the conditions of the Creative Commons
Attribution-Share Alike 3.0 Licence. This means you are free:
* to Share - to copy, distribute and transmit the work
* to Remix - to adapt the work

Under the following conditions:
* Attribution. You must attribute the work by stating your use of KanjiVG in
  your own copyright header and linking to KanjiVG's website
  (http://kanjivg.tagaini.net)
* Share Alike. If you alter, transform, or build upon this work, you may
  distribute the resulting work only under the same or similar license to this
  one.

See http://creativecommons.org/licenses/by-sa/3.0/ for more details.
-->
<!DOCTYPE svg PUBLIC "-//W3C//DTD SVG 1.0//EN" "http://www.w3.org/TR/2001/REC-SVG-20010904/DTD/svg10.dtd" [
	<!ATTLIST g
		xmlns:kvg CDATA #FIXED "http://kanjivg.tagaini.net"
		kvg:element CDATA #IMPLIED
		kvg:variant CDATA #IMPLIED
		kvg:partial CDATA #IMPLIED
		kvg:original CDATA #IMPLIED
		kvg:part CDATA #IMPLIED
		kvg:number CDATA #IMPLIED
		kvg:tradForm CDATA #IMPLIED
		kvg:radicalForm CDATA #IMPLIED
		kvg:position CDATA #IMPLIED
		kvg:radical CDATA #IMPLIED
		kvg:phon CDATA #IMPLIED >
	<!ATTLIST path
		xmlns:kvg CDATA #FIXED "http://kanjivg.tagaini.net"
		kvg:type CDATA #IMPLIED >
]>
<svg xmlns="http://www.w3.org/2000/svg" width="109" height="109" viewBox="0 0 109 109">
	<g id="kvg:StrokePaths_07e70" style="fill:none;stroke:#000000;stroke-width:3;stroke-linecap:round;stroke-linejoin:round;">
		<g id="kvg:07e70-g2" kvg:element="喿" kvg:phon="品+木">
			<g id="kvg:07e70-g3" kvg:element="品" kvg:position="top">
				<g id="kvg:07e70-g4" kvg:element="口" kvg:position="top">
					<path id="kvg:07e70-s7" kvg:type="㇑" d="M54.29,16.72c0.75,0.75,1.46,1.65,1.73,2.84c0.79,3.57,1.22,5.1,2,9.48c0.21,1.16,0.41,2.28,0.6,3.3" />
					<path id="kvg:07e70-s8" kvg:type="㇕b" d="M56.84,18.29c8.12-1.41,18.17-2.95,22.83-3.3c1.7-0.13,2.72,1.03,2.48,1.8c-1.01,3.17-1.88,6.99-3.38,11.37" />
					<path id="kvg:07e70-s9" kvg:type="㇐b" d="M59.92,30.5c4.51-0.33,10.18-1.03,16.32-1.61c1.3-0.12,2.61-0.24,3.93-0.35" />
				</g>
				<g id="kvg:07e70-g5" kvg:position="bottom" kvg:element="吅">
					<g id="kvg:07e70-g6" kvg:element="口" kvg:position="left">
						<path id="kvg:07e70-s10" kvg:type="㇑" d="M46.5,40.35c0.7,0.7,1.12,1.28,1.37,2.09c0.64,2.11,1.6,4.96,2.26,9.08c0.19,1.2,0.36,2.38,0.5,3.48" />
						<path id="kvg:07e70-s11" kvg:type="㇕b" d="M48.32,41.4c6.03-1.24,9.86-1.9,12.58-2.29c2.9-0.42,3.56,0.17,3,3.02c-0.56,2.87-1.21,5.29-2,8.91" />
						<path id="kvg:07e70-s12" kvg:type="㇐b" d="M51.75,53.39c2.93-0.34,3.91-0.62,8.49-0.97c0.85-0.07,1.78-0.14,2.8-0.24" />
					</g>
					<g id="kvg:07e70-g7" kvg:element="口" kvg:position="right">
						<path id="kvg:07e70-s13" kvg:type="㇑" d="M72.42,38.7c0.75,0.75,1.16,1.46,1.25,2.25c0.58,2.07,1.14,4.97,1.52,8.02c0.15,1.19,0.3,2.41,0.45,3.6" />
						<path id="kvg:07e70-s14" kvg:type="㇕b" d="M74.56,40.01c5.59-0.83,10.08-1.64,13.21-2.09c2.78-0.4,3.59,0.2,2.94,2.99c-0.58,2.5-1,3.91-1.82,7.5" />
						<path id="kvg:07e70-s15" kvg:type="㇐b" d="M77.3,51.24c2.95-0.37,4.62-0.8,9.19-1.33c1.17-0.14,2.51-0.26,4.11-0.35" />
					</g>
				</g>
			</g>
			<g id="kvg:07e70-g8" kvg:element="木" kvg:position="bottom">
				<path id="kvg:07e70-s16" kvg:type="㇐" d="M45.9,66.55c2.47,0.81,5.09,0.33,7.61,0.08c7.92-0.79,21.82-2.31,31.75-3.16c2.72-0.23,5.31-0.51,8.02,0.03" />
				<path id="kvg:07e70-s17" kvg:type="㇑" d="M67.79,55.17c0.9,0.9,1.18,2.4,1.18,3.51c0,8.95,0,22.84-0.13,31.82c-0.04,2.4-0.08,4.41-0.14,5.83" />
				<path id="kvg:07e70-s18" kvg:type="㇒" d="M65.55,66.18c0,1.45-0.65,2.58-1.74,4.12c-5.47,7.78-14.94,16.67-22.56,20.55" />
				<path id="kvg:07e70-s19" kvg:type="㇏" d="M70.29,66.25c4.08,4.88,11.88,12.79,18.01,18.2c2.19,1.93,4.32,3.18,6.69,4.57" />
			</g>
		</g>
	</g>
	<g id="kvg:StrokeNumbers_07e70" style="font-size:8;fill:#808080">
		<text transform="matrix(1 0 0 1 48.75 25.63)">1</text>
		<text transform="matrix(1 0 0 1 58.50 14.50)">2</text>
		<text transform="matrix(1 0 0 1 62.25 27.50)">3</text>
		<text transform="matrix(1 0 0 1 38.50 48.13)">4</text>
		<text transform="matrix(1 0 0 1 48.50 38.13)">5</text>
		<text transform="matrix(1 0 0 1 52.50 50.50)">6</text>
		<text transform="matrix(1 0 0 1 65.50 48.50)">7</text>
		<text transform="matrix(1 0 0 1 75.50 37.63)">8</text>
		<text transform="matrix(1 0 0 1 77.25 48.50)">9</text>
		<text transform="matrix(1 0 0 1 45.00 64.50)">10</text>
		<text transform="matrix(1 0 0 1 57.75 61.55)">11</text>
		<text transform="matrix(1 0 0 1 49.50 76.50)">12</text>
		<text transform="matrix(1 0 0 1 79.50 74.50)">13</text>
	</g>
</svg>