<?xml version="1.0" encoding="UTF-8"?>
<!--
Copyright (C) 2009/2010/2011 Ulrich Apel.
This work is distributed under the conditions of the Creative Commons
Attribution-Share Alike 3.0 Licence. This means you are free:
* to Share - to copy, distribute and transmit the work
* to Remix - to adapt the work

Under the following conditions:
* Attribution. You must attribute the work by stating your use of KanjiVG in
  your own copyright header and linking to KanjiVG's website
  (http://kanjivg.tagaini.net)
* Share Alike. If you alter, transform, or build upon this work, you may
  distribute the resulting work only under the same or similar license to this
  one.

See http://creativecommons.org/licenses/by-sa/3.0/ for more details.
-->
<!DOCTYPE svg PUBLIC "-//W3C//DTD SVG 1.0//EN" "http://www.w3.org/TR/2001/REC-SVG-20010904/DTD/svg10.dtd" [
	<!ATTLIST g
		xmlns:kvg CDATA #FIXED "http://kanjivg.tagaini.net"
		kvg:element CDATA #IMPLIED
		kvg:variant CDATA #IMPLIED
		kvg:partial CDATA #IMPLIED
		kvg:original CDATA #IMPLIED
		kvg:part CDATA #IMPLIED
		kvg:number CDATA #IMPLIED
		kvg:tradForm CDATA #IMPLIED
		kvg:radicalForm CDATA #IMPLIED
		kvg:position CDATA #IMPLIED
		kvg:radical CDATA #IMPLIED
		kvg:phon CDATA #IMPLIED >
	<!ATTLIST path
		xmlns:kvg CDATA #FIXED "http://kanjivg.tagaini.net"
		kvg:type CDATA #IMPLIED >
]>
<svg xmlns="http://www.w3.org/2000/svg" width="109" height="109" viewBox="0 0 109 109">
	<g id="kvg:StrokePaths_06028" style="fill:none;stroke:#000000;stroke-width:3;stroke-linecap:round;stroke-linejoin:round;">
		<g id="kvg:06028-g1" kvg:element="夗">
			<g id="kvg:06028-g2" kvg:element="夕" kvg:position="left">
				<path id="kvg:06028-s1" kvg:type="㇒" d="M34.23,13.14c0,1.16-0.17,2.28-0.63,3.31c-3.1,7.04-8.76,16.5-17.26,25.22" />
				<path id="kvg:06028-s2" kvg:type="㇇" d="M34.8,21.87c1.3,0.03,2.58-0.11,3.84-0.42c2.39-0.51,5.79-0.93,8.77-1.52c3.57-0.7,4.87,0.3,3.53,3.89C46.59,35.52,29.4,60.56,14.75,66" />
				<path id="kvg:06028-s3" kvg:type="㇔" d="M27.12,34.12c2.38,1.5,6.62,4.88,9,8.75" />
			</g>
			<g id="kvg:06028-g3" kvg:element="卩" kvg:position="right">
				<path id="kvg:06028-s4" kvg:type="㇆" d="M59.49,19.73c1.91,0.39,3.78,0.38,5.63-0.03c5.52-1,14.02-2.84,17.28-3.67c2.6-0.66,4.36,0.98,3.97,4.04c-0.74,5.68-2.58,12.56-5.61,18.73c-2.21,4.5-4.18,0.54-4.61,0.32" />
				<path id="kvg:06028-s5" kvg:type="㇟/㇑" d="M61.24,20.73c0.89,0.9,1.26,2.4,1.23,4.04c-0.09,5.77-0.11,10.73-0.05,17.81c0.09,11.93,1.84,13.13,15.82,13.13c14.52,0,16.41-1.07,16.41-10.39" />
			</g>
		</g>
	</g>
	<g id="kvg:StrokeNumbers_06028" style="font-size:8;fill:#808080">
		<text transform="matrix(1 0 0 1 25.50 11.50)">1</text>
		<text transform="matrix(1 0 0 1 40.50 18.50)">2</text>
		<text transform="matrix(1 0 0 1 31.50 34.50)">3</text>
		<text transform="matrix(1 0 0 1 64.50 16.50)">4</text>
		<text transform="matrix(1 0 0 1 56.25 32.50)">5</text>
	</g>
</svg>