<?xml version="1.0" encoding="UTF-8"?>
<!--
Copyright (C) 2009/2010/2011 Ulrich Apel.
This work is distributed under the conditions of the Creative Commons
Attribution-Share Alike 3.0 Licence. This means you are free:
* to Share - to copy, distribute and transmit the work
* to Remix - to adapt the work

Under the following conditions:
* Attribution. You must attribute the work by stating your use of KanjiVG in
  your own copyright header and linking to KanjiVG's website
  (http://kanjivg.tagaini.net)
* Share Alike. If you alter, transform, or build upon this work, you may
  distribute the resulting work only under the same or similar license to this
  one.

See http://creativecommons.org/licenses/by-sa/3.0/ for more details.
-->
<!DOCTYPE svg PUBLIC "-//W3C//DTD SVG 1.0//EN" "http://www.w3.org/TR/2001/REC-SVG-20010904/DTD/svg10.dtd" [
	<!ATTLIST g
		xmlns:kvg CDATA #FIXED "http://kanjivg.tagaini.net"
		kvg:element CDATA #IMPLIED
		kvg:variant CDATA #IMPLIED
		kvg:partial CDATA #IMPLIED
		kvg:original CDATA #IMPLIED
		kvg:part CDATA #IMPLIED
		kvg:number CDATA #IMPLIED
		kvg:tradForm CDATA #IMPLIED
		kvg:radicalForm CDATA #IMPLIED
		kvg:position CDATA #IMPLIED
		kvg:radical CDATA #IMPLIED
		kvg:phon CDATA #IMPLIED >
	<!ATTLIST path
		xmlns:kvg CDATA #FIXED "http://kanjivg.tagaini.net"
		kvg:type CDATA #IMPLIED >
]>
<svg xmlns="http://www.w3.org/2000/svg" width="109" height="109" viewBox="0 0 109 109">
	<g id="kvg:StrokePaths_07e04" style="fill:none;stroke:#000000;stroke-width:3;stroke-linecap:round;stroke-linejoin:round;">
		<g id="kvg:07e04-g2" kvg:element="电">
			<g id="kvg:07e04-g4" kvg:element="日" kvg:position="top">
				<path id="kvg:07e04-s11" kvg:type="㇑" d="M45.83,51.88c0.96,0.96,1.19,1.93,1.34,2.99c0.84,6.01,1.51,13.02,2.28,20.89c0.17,1.72,0.33,3.39,0.5,4.95" />
				<path id="kvg:07e04-s12" kvg:type="㇕a" d="M47.97,53.59C61.25,52,74.88,51,88,50.04c3.38-0.25,4.75,1.32,4.42,3.98c-0.51,4.15-1.68,11.96-2.94,19.28c-0.26,1.54-0.53,3.06-0.8,4.51" />
				<path id="kvg:07e04-s13" kvg:type="㇐a" d="M49.51,65.42c9.36-1.17,34.99-2.91,41.23-2.9" />
				<path id="kvg:07e04-s14" kvg:type="㇐a" d="M50.57,78.72c9.68-0.85,24.43-2.1,37.35-2.8" />
			</g>
			<g kvg:position="bottom">
				<path id="kvg:07e04-s15" kvg:type="㇟" d="M66.49,18.39c1.06,1.06,1.41,2.61,1.41,3.78c0,6.98,0.05,57.01,0.05,61.76c0,8.7,1.67,9.83,14.45,9.83c14.22,0,15.48-1.39,15.48-7.78" />
			</g>
		</g>
	</g>
	<g id="kvg:StrokeNumbers_07e04" style="font-size:8;fill:#808080">
		<text transform="matrix(1 0 0 1 39.50 65.50)">1</text>
		<text transform="matrix(1 0 0 1 50.25 50.50)">2</text>
		<text transform="matrix(1 0 0 1 52.50 62.50)">3</text>
		<text transform="matrix(1 0 0 1 52.35 75.50)">4</text>
		<text transform="matrix(1 0 0 1 58.50 23.50)">5</text>
	</g>
</svg>