<?xml version="1.0" encoding="UTF-8"?>
<!--
Copyright (C) 2009/2010/2011 Ulrich Apel.
This work is distributed under the conditions of the Creative Commons
Attribution-Share Alike 3.0 Licence. This means you are free:
* to Share - to copy, distribute and transmit the work
* to Remix - to adapt the work

Under the following conditions:
* Attribution. You must attribute the work by stating your use of KanjiVG in
  your own copyright header and linking to KanjiVG's website
  (http://kanjivg.tagaini.net)
* Share Alike. If you alter, transform, or build upon this work, you may
  distribute the resulting work only under the same or similar license to this
  one.

See http://creativecommons.org/licenses/by-sa/3.0/ for more details.
-->
<!DOCTYPE svg PUBLIC "-//W3C//DTD SVG 1.0//EN" "http://www.w3.org/TR/2001/REC-SVG-20010904/DTD/svg10.dtd" [
	<!ATTLIST g
		xmlns:kvg CDATA #FIXED "http://kanjivg.tagaini.net"
		kvg:element CDATA #IMPLIED
		kvg:variant CDATA #IMPLIED
		kvg:partial CDATA #IMPLIED
		kvg:original CDATA #IMPLIED
		kvg:part CDATA #IMPLIED
		kvg:number CDATA #IMPLIED
		kvg:tradForm CDATA #IMPLIED
		kvg:radicalForm CDATA #IMPLIED
		kvg:position CDATA #IMPLIED
		kvg:radical CDATA #IMPLIED
		kvg:phon CDATA #IMPLIED >
	<!ATTLIST path
		xmlns:kvg CDATA #FIXED "http://kanjivg.tagaini.net"
		kvg:type CDATA #IMPLIED >
]>
<svg xmlns="http://www.w3.org/2000/svg" width="109" height="109" viewBox="0 0 109 109">
	<g id="kvg:StrokePaths_08b04" style="fill:none;stroke:#000000;stroke-width:3;stroke-linecap:round;stroke-linejoin:round;">
		<g kvg:element="龹">
			<g kvg:position="top">
				<g kvg:position="top" kvg:element="丷">
					<path id="kvg:08b04-s5" kvg:type="㇔" d="M49.02,19.09c2.04,1.5,5.26,6.18,5.77,8.52" />
					<path id="kvg:08b04-s6" kvg:type="㇒" d="M82.78,15.89c0.02,0.25,0.14,0.68-0.04,1c-1.37,2.48-3.25,5.23-7.27,9.32" />
				</g>
				<g kvg:position="bottom" kvg:element="二">
					<path id="kvg:08b04-s7" kvg:type="㇐" d="M48.28,32.6c2.59,0.4,4.41,0.15,6.35-0.03c7.12-0.66,19.38-2.09,25.5-2.41c1.76-0.09,3.66-0.17,5.4,0.23" />
					<path id="kvg:08b04-s8" kvg:type="㇐" d="M42.75,44.39c2.37,0.79,5.44,0.44,7.87,0.19c9.71-0.99,25.15-2.6,36.12-3.32c2.39-0.16,4.65-0.27,7.01,0.2" />
				</g>
			</g>
			<g kvg:position="bottom" kvg:element="人">
				<path id="kvg:08b04-s9" kvg:type="㇒" d="M66.8,14c0.57,1,0.43,2.53,0.12,3.84C63,34.5,56.5,50.75,43.25,63.04" />
				<path id="kvg:08b04-s10" kvg:type="㇏" d="M68.5,35.5c1.88,0.42,14.18,12.32,20.6,17.9c1.97,1.71,3.91,3.04,6.15,4.35" />
			</g>
		</g>
	</g>
	<g id="kvg:StrokeNumbers_08b04" style="font-size:8;fill:#808080">
		<text transform="matrix(1 0 0 1 42.50 18.13)">1</text>
		<text transform="matrix(1 0 0 1 74.50 14.50)">2</text>
		<text transform="matrix(1 0 0 1 42.50 33.50)">3</text>
		<text transform="matrix(1 0 0 1 41.25 41.50)">4</text>
		<text transform="matrix(1 0 0 1 58.50 13.48)">5</text>
		<text transform="matrix(1 0 0 1 74.50 39.13)">6</text>
	</g>
</svg>