<?xml version="1.0" encoding="UTF-8"?>
<!--
Copyright (C) 2009/2010/2011 Ulrich Apel.
This work is distributed under the conditions of the Creative Commons
Attribution-Share Alike 3.0 Licence. This means you are free:
* to Share - to copy, distribute and transmit the work
* to Remix - to adapt the work

Under the following conditions:
* Attribution. You must attribute the work by stating your use of KanjiVG in
  your own copyright header and linking to KanjiVG's website
  (http://kanjivg.tagaini.net)
* Share Alike. If you alter, transform, or build upon this work, you may
  distribute the resulting work only under the same or similar license to this
  one.

See http://creativecommons.org/licenses/by-sa/3.0/ for more details.
-->
<!DOCTYPE svg PUBLIC "-//W3C//DTD SVG 1.0//EN" "http://www.w3.org/TR/2001/REC-SVG-20010904/DTD/svg10.dtd" [
	<!ATTLIST g
		xmlns:kvg CDATA #FIXED "http://kanjivg.tagaini.net"
		kvg:element CDATA #IMPLIED
		kvg:variant CDATA #IMPLIED
		kvg:partial CDATA #IMPLIED
		kvg:original CDATA #IMPLIED
		kvg:part CDATA #IMPLIED
		kvg:number CDATA #IMPLIED
		kvg:tradForm CDATA #IMPLIED
		kvg:radicalForm CDATA #IMPLIED
		kvg:position CDATA #IMPLIED
		kvg:radical CDATA #IMPLIED
		kvg:phon CDATA #IMPLIED >
	<!ATTLIST path
		xmlns:kvg CDATA #FIXED "http://kanjivg.tagaini.net"
		kvg:type CDATA #IMPLIED >
]>
<svg xmlns="http://www.w3.org/2000/svg" width="109" height="109" viewBox="0 0 109 109">
	<g id="kvg:StrokePaths_05510" style="fill:none;stroke:#000000;stroke-width:3;stroke-linecap:round;stroke-linejoin:round;">
		<g kvg:position="top" kvg:element="">
			<g id="kvg:05510-g4" kvg:element="⺕" kvg:variant="true" kvg:original="彑" kvg:position="top">
				<path id="kvg:05510-s4" kvg:type="㇕c" d="M37.63,40.4c2.01,0.24,3.73,0.69,5.57,0.48C54.5,39.62,64,38.25,74.4,37.75c2.61-0.12,4.41,1.21,4.01,3.62c-1.05,6.31-2.04,13.38-3.21,20.77" />
				<path id="kvg:05510-s5" kvg:type="㇐" d="M33,52.41c2.7,0.36,5.03,0.5,7.75,0.21c15.38-1.61,30.63-2.69,43.27-3.35c2.98-0.16,6.05-0.14,8.98,0.57" />
				<path id="kvg:05510-s6" kvg:type="㇐" d="M36.83,65.95c2.26,0.33,4.27,0.44,6.55,0.25c10.21-0.83,21.26-2.5,30.52-2.77c1.6-0.05,2.61,0,3.81,0.15" />
			</g>
			<g kvg:position="bottom">
				<path id="kvg:05510-s7" kvg:type="㇑a" d="M55.37,30.5c1.07,1.06,1.21,2.25,1.21,3.75c0,1.02,0.03,23,0.03,30" />
			</g>
		</g>
	</g>
	<g id="kvg:StrokeNumbers_05510" style="font-size:8;fill:#808080">
		<text transform="matrix(1 0 0 1 36.75 37.63)">1</text>
		<text transform="matrix(1 0 0 1 35.25 49.55)">2</text>
		<text transform="matrix(1 0 0 1 35.25 63.50)">3</text>
		<text transform="matrix(1 0 0 1 46.50 34.63)">4</text>
	</g>
</svg>