<?xml version="1.0" encoding="UTF-8"?>
<!--
Copyright (C) 2009/2010/2011 Ulrich Apel.
This work is distributed under the conditions of the Creative Commons
Attribution-Share Alike 3.0 Licence. This means you are free:
* to Share - to copy, distribute and transmit the work
* to Remix - to adapt the work

Under the following conditions:
* Attribution. You must attribute the work by stating your use of KanjiVG in
  your own copyright header and linking to KanjiVG's website
  (http://kanjivg.tagaini.net)
* Share Alike. If you alter, transform, or build upon this work, you may
  distribute the resulting work only under the same or similar license to this
  one.

See http://creativecommons.org/licenses/by-sa/3.0/ for more details.
-->
<!DOCTYPE svg PUBLIC "-//W3C//DTD SVG 1.0//EN" "http://www.w3.org/TR/2001/REC-SVG-20010904/DTD/svg10.dtd" [
	<!ATTLIST g
		xmlns:kvg CDATA #FIXED "http://kanjivg.tagaini.net"
		kvg:element CDATA #IMPLIED
		kvg:variant CDATA #IMPLIED
		kvg:partial CDATA #IMPLIED
		kvg:original CDATA #IMPLIED
		kvg:part CDATA #IMPLIED
		kvg:number CDATA #IMPLIED
		kvg:tradForm CDATA #IMPLIED
		kvg:radicalForm CDATA #IMPLIED
		kvg:position CDATA #IMPLIED
		kvg:radical CDATA #IMPLIED
		kvg:phon CDATA #IMPLIED >
	<!ATTLIST path
		xmlns:kvg CDATA #FIXED "http://kanjivg.tagaini.net"
		kvg:type CDATA #IMPLIED >
]>
<svg xmlns="http://www.w3.org/2000/svg" width="109" height="109" viewBox="0 0 109 109">
	<g id="kvg:StrokePaths_074a7" style="fill:none;stroke:#000000;stroke-width:3;stroke-linecap:round;stroke-linejoin:round;">
		<g id="kvg:074a7-g3" kvg:element="𡰪">
			<g id="kvg:074a7-g4" kvg:element="尸" kvg:position="top">
				<path id="kvg:074a7-s1" kvg:type="㇕c" d="M21.38,16.15c1.13,0.34,2.32,0.65,3.52,0.58c6.46-0.38,18.07-2.47,20.66-2.61c1.28-0.07,2.45,0.87,2.18,1.86c-0.67,2.45-2.04,6.7-3.1,12.14" />
				<path id="kvg:074a7-s2" kvg:type="㇐b" d="M23.92,29.85c3.24-0.11,15.07-1.62,23.42-2.09" />
				<path id="kvg:074a7-s3" kvg:type="㇒" d="M24.15,17.5c0.35,1.5,0.21,2.89,0.21,4.51c0,9.24-4.2,27.03-13.06,34.53" />
			</g>
			<g id="kvg:074a7-g5" kvg:element="口" kvg:position="bottom">
				<path id="kvg:074a7-s4" kvg:type="㇑" d="M23.59,41.87c0.17,0.54,0.75,1.76,0.81,2.17c0.43,2.99,2.25,8.91,2.85,14.58" />
				<path id="kvg:074a7-s5" kvg:type="㇕b" d="M24.46,43.24c4.79-0.6,19.59-3.15,22.86-3.25c1.35-0.04,1.86,1.76,1.67,2.65c-0.74,3.54-2.56,8.37-3.28,12.89" />
				<path id="kvg:074a7-s6" kvg:type="㇐b" d="M28.01,57.2c3.96-0.25,15.08-1.39,19.83-1.71" />
			</g>
		</g>
	</g>
	<g id="kvg:StrokeNumbers_074a7" style="font-size:8;fill:#808080">
		<text transform="matrix(1 0 0 1 24.85 13.50)">1</text>
		<text transform="matrix(1 0 0 1 28.50 26.50)">2</text>
		<text transform="matrix(1 0 0 1 16.71 23.50)">3</text>
		<text transform="matrix(1 0 0 1 19.54 54.50)">4</text>
		<text transform="matrix(1 0 0 1 26.50 39.50)">5</text>
		<text transform="matrix(1 0 0 1 29.50 53.50)">6</text>
	</g>
</svg>