<?xml version="1.0" encoding="UTF-8"?>
<!--
Copyright (C) 2009/2010/2011 Ulrich Apel.
This work is distributed under the conditions of the Creative Commons
Attribution-Share Alike 3.0 Licence. This means you are free:
* to Share - to copy, distribute and transmit the work
* to Remix - to adapt the work

Under the following conditions:
* Attribution. You must attribute the work by stating your use of KanjiVG in
  your own copyright header and linking to KanjiVG's website
  (http://kanjivg.tagaini.net)
* Share Alike. If you alter, transform, or build upon this work, you may
  distribute the resulting work only under the same or similar license to this
  one.

See http://creativecommons.org/licenses/by-sa/3.0/ for more details.
-->
<!DOCTYPE svg PUBLIC "-//W3C//DTD SVG 1.0//EN" "http://www.w3.org/TR/2001/REC-SVG-20010904/DTD/svg10.dtd" [
	<!ATTLIST g
		xmlns:kvg CDATA #FIXED "http://kanjivg.tagaini.net"
		kvg:element CDATA #IMPLIED
		kvg:variant CDATA #IMPLIED
		kvg:partial CDATA #IMPLIED
		kvg:original CDATA #IMPLIED
		kvg:part CDATA #IMPLIED
		kvg:number CDATA #IMPLIED
		kvg:tradForm CDATA #IMPLIED
		kvg:radicalForm CDATA #IMPLIED
		kvg:position CDATA #IMPLIED
		kvg:radical CDATA #IMPLIED
		kvg:phon CDATA #IMPLIED >
	<!ATTLIST path
		xmlns:kvg CDATA #FIXED "http://kanjivg.tagaini.net"
		kvg:type CDATA #IMPLIED >
]>
<svg xmlns="http://www.w3.org/2000/svg" width="109" height="109" viewBox="0 0 109 109">
	<g id="kvg:StrokePaths_08c61" style="fill:none;stroke:#000000;stroke-width:3;stroke-linecap:round;stroke-linejoin:round;">
		<g kvg:position="top" kvg:element="𫩏">
			<g kvg:position="top" kvg:element="⿙">
				<path id="kvg:08c61-s3" kvg:type="㇑" d="M25.58,34.83c0.92,0.42,1.63,1.18,1.85,2.02c1.13,4.32,1.64,6.45,2.44,9.43c0.31,1.17,0.67,2.48,1.13,4.11" />
				<path id="kvg:08c61-s4" kvg:type="㇕a" d="M28.42,35.91c10.71-1.79,30.73-4.17,43.09-5.54c3.7-0.41,6.63-0.18,5.45,4.39c-0.59,2.29-1.45,4.32-2.81,6.94c-0.48,0.93-1.03,1.93-1.65,3.04" />
			</g>
			<g kvg:position="bottom" kvg:element="丄">
				<path id="kvg:08c61-s5" kvg:type="㇑a" d="M51.24,34.58c0.72,0.72,0.9,1.54,0.9,2.58c0,1.96-0.01,4.84-0.01,6.59" />
				<path id="kvg:08c61-s6" kvg:type="㇐a" d="M31.46,47.27c9.04-1.15,31.29-3.77,40.75-4.21" />
			</g>
		</g>
	</g>
	<g id="kvg:StrokeNumbers_08c61" style="font-size:8;fill:#808080">
		<text transform="matrix(1 0 0 1 20.25 45.13)">1</text>
		<text transform="matrix(1 0 0 1 31.99 32.91)">2</text>
		<text transform="matrix(1 0 0 1 56.25 40.63)">3</text>
		<text transform="matrix(1 0 0 1 35.25 45.13)">4</text>
	</g>
</svg>