<?xml version="1.0" encoding="UTF-8"?>
<!--
Copyright (C) 2009/2010/2011 Ulrich Apel.
This work is distributed under the conditions of the Creative Commons
Attribution-Share Alike 3.0 Licence. This means you are free:
* to Share - to copy, distribute and transmit the work
* to Remix - to adapt the work

Under the following conditions:
* Attribution. You must attribute the work by stating your use of KanjiVG in
  your own copyright header and linking to KanjiVG's website
  (http://kanjivg.tagaini.net)
* Share Alike. If you alter, transform, or build upon this work, you may
  distribute the resulting work only under the same or similar license to this
  one.

See http://creativecommons.org/licenses/by-sa/3.0/ for more details.
-->
<!DOCTYPE svg PUBLIC "-//W3C//DTD SVG 1.0//EN" "http://www.w3.org/TR/2001/REC-SVG-20010904/DTD/svg10.dtd" [
    <!ATTLIST g
        xmlns:kvg CDATA #FIXED "http://kanjivg.tagaini.net"
        kvg:element CDATA #IMPLIED
        kvg:variant CDATA #IMPLIED
        kvg:partial CDATA #IMPLIED
        kvg:original CDATA #IMPLIED
        kvg:part CDATA #IMPLIED
        kvg:number CDATA #IMPLIED
        kvg:tradForm CDATA #IMPLIED
        kvg:radicalForm CDATA #IMPLIED
        kvg:position CDATA #IMPLIED
        kvg:radical CDATA #IMPLIED
        kvg:phon CDATA #IMPLIED >
    <!ATTLIST path
        xmlns:kvg CDATA #FIXED "http://kanjivg.tagaini.net"
        kvg:type CDATA #IMPLIED >
]>
<svg xmlns="http://www.w3.org/2000/svg" width="109" height="109" viewBox="0 0 109 109">
    <g id="kvg:StrokePaths_08f38" style="fill:none;stroke:#000000;stroke-width:3;stroke-linecap:round;stroke-linejoin:round;">
        <g kvg:position="top" kvg:element="亼">
            <g id="kvg:06109-g3" kvg:element="人" kvg:position="top">
                <path id="kvg:06109-s4" kvg:type="㇒" d="M61.45,13c0.07,0.8-0.14,1.91-0.64,2.95C56.5,25,49.88,36.5,36.75,47.35" />
                <path id="kvg:06109-s5" kvg:type="㇏" d="M61.84,16.15c5.4,5.26,16.28,14.72,23.89,21.4c2.43,2.13,5.92,4.17,8.77,5.71" />
            </g>
            <g id="kvg:06109-g5" kvg:element="一">
                <path id="kvg:06109-s6" kvg:type="㇐" d="M51.56,40.8c1.08,0.49,3.56,0.56,4.68,0.4c5.13-0.72,12.29-2.27,16.36-2.72c1.15-0.13,2.21-0.19,3.33,0.12" />
            </g>
        </g>
    </g>
    <g id="kvg:StrokeNumbers_08f38" style="font-size:8;fill:#808080">
        <text transform="matrix(1 0 0 1 55.50 18.13)">8</text>
        <text transform="matrix(1 0 0 1 73.50 19.50)">9</text>
        <text transform="matrix(1 0 0 1 57.50 38.50)">10</text>
    </g>
</svg>